<svg width="20" height="20" viewBox="0 0 20 20" fill="none" xmlns="http://www.w3.org/2000/svg">
<g clip-path="url(#clip0_3921_10620)">
<path d="M10.0001 18.3334C14.6025 18.3334 18.3334 14.6025 18.3334 10.0001C18.3334 5.39771 14.6025 1.66675 10.0001 1.66675C5.39771 1.66675 1.66675 5.39771 1.66675 10.0001C1.66675 14.6025 5.39771 18.3334 10.0001 18.3334Z" fill="#008C7B"/>
<path d="M7.50008 10.0001L9.16675 11.6667L12.5001 8.33342" fill="#008C7B"/>
<path d="M7.50008 10.0001L9.16675 11.6667L12.5001 8.33342M18.3334 10.0001C18.3334 14.6025 14.6025 18.3334 10.0001 18.3334C5.39771 18.3334 1.66675 14.6025 1.66675 10.0001C1.66675 5.39771 5.39771 1.66675 10.0001 1.66675C14.6025 1.66675 18.3334 5.39771 18.3334 10.0001Z" stroke="white" stroke-width="1.5" stroke-linecap="round" stroke-linejoin="round"/>
</g>
<defs>
<clipPath id="clip0_3921_10620">
<rect width="20" height="20" fill="white"/>
</clipPath>
</defs>
</svg>
