<svg width="currentWidth" height="currentHeight" viewBox="0 0 12 13" fill="none" xmlns="http://www.w3.org/2000/svg">
<path d="M6 7C6.27614 7 6.5 6.77614 6.5 6.5C6.5 6.22386 6.27614 6 6 6C5.72386 6 5.5 6.22386 5.5 6.5C5.5 6.77614 5.72386 7 6 7Z" stroke="currentColor" stroke-linecap="round" stroke-linejoin="round"/>
<path d="M6 3.5C6.27614 3.5 6.5 3.27614 6.5 3C6.5 2.72386 6.27614 2.5 6 2.5C5.72386 2.5 5.5 2.72386 5.5 3C5.5 3.27614 5.72386 3.5 6 3.5Z" stroke="currentColor" stroke-linecap="round" stroke-linejoin="round"/>
<path d="M6 10.5C6.27614 10.5 6.5 10.2761 6.5 10C6.5 9.72386 6.27614 9.5 6 9.5C5.72386 9.5 5.5 9.72386 5.5 10C5.5 10.2761 5.72386 10.5 6 10.5Z" stroke="currentColor" stroke-linecap="round" stroke-linejoin="round"/>
</svg>
