<svg width="currentWidth" height="currentHeight" viewBox="0 0 20 20" fill="none" xmlns="http://www.w3.org/2000/svg">
<path d="M8.65417 17.5H4.45833C4.03841 17.5 3.63568 17.3244 3.33875 17.0118C3.04181 16.6993 2.875 16.2754 2.875 15.8333V4.16667C2.875 3.72464 3.04181 3.30072 3.33875 2.98816C3.63568 2.67559 4.03841 2.5 4.45833 2.5H15.5417C15.9616 2.5 16.3643 2.67559 16.6613 2.98816C16.9582 3.30072 17.125 3.72464 17.125 4.16667V12.5L14.6708 9.91667C14.3729 9.60931 13.9718 9.43813 13.5547 9.44032C13.1375 9.4425 12.7381 9.61788 12.4431 9.92833L5.25 17.5M11.5833 16.25L13.9583 13.75M13.9583 13.75L16.3333 16.25M13.9583 13.75V18.3333M9.20833 7.5C9.20833 8.42047 8.49945 9.16667 7.625 9.16667C6.75055 9.16667 6.04167 8.42047 6.04167 7.5C6.04167 6.57953 6.75055 5.83333 7.625 5.83333C8.49945 5.83333 9.20833 6.57953 9.20833 7.5Z" stroke="currentColor" stroke-width="1.5" stroke-linecap="round" stroke-linejoin="round"/>
</svg>
