<svg width="21" height="21" viewBox="0 0 21 21" fill="none" xmlns="http://www.w3.org/2000/svg">
<path d="M14.2501 7.16671C14.4802 7.16671 14.6667 6.98016 14.6667 6.75004C14.6667 6.51992 14.4802 6.33337 14.2501 6.33337C14.02 6.33337 13.8334 6.51992 13.8334 6.75004C13.8334 6.98016 14.02 7.16671 14.2501 7.16671Z" fill="currentColor"/>
<path d="M2.16675 15.5V18C2.16675 18.5 2.50008 18.8333 3.00008 18.8333H6.33341V16.3333H8.83342V13.8333H10.5001L11.6667 12.6666C12.8249 13.0701 14.0858 13.0685 15.243 12.6623C16.4002 12.256 17.3853 11.469 18.037 10.4301C18.6888 9.39115 18.9688 8.16178 18.831 6.94309C18.6933 5.72439 18.146 4.58851 17.2788 3.72128C16.4115 2.85404 15.2757 2.30679 14.057 2.16905C12.8383 2.0313 11.6089 2.31122 10.57 2.96301C9.53105 3.61479 8.74407 4.59986 8.33779 5.75707C7.9315 6.91428 7.92996 8.17511 8.33341 9.3333L2.16675 15.5Z" stroke="currentColor" stroke-width="1.4" stroke-linecap="round" stroke-linejoin="round"/>
<path d="M14.2501 7.16671C14.4802 7.16671 14.6667 6.98016 14.6667 6.75004C14.6667 6.51992 14.4802 6.33337 14.2501 6.33337C14.02 6.33337 13.8334 6.51992 13.8334 6.75004C13.8334 6.98016 14.02 7.16671 14.2501 7.16671Z" stroke="currentColor" stroke-width="1.4" stroke-linecap="round" stroke-linejoin="round"/>
</svg>
