<svg width="currentWidth" height="currentHeight" viewBox="0 0 25 24" fill="none" xmlns="http://www.w3.org/2000/svg">
<path d="M12.75 7C12.75 5.93913 12.3286 4.92172 11.5784 4.17157C10.8283 3.42143 9.81087 3 8.75 3H2.75V18H9.75C10.5456 18 11.3087 18.3161 11.8713 18.8787C12.4339 19.4413 12.75 20.2044 12.75 21M12.75 7V21M12.75 7C12.75 5.93913 13.1714 4.92172 13.9216 4.17157C14.6717 3.42143 15.6891 3 16.75 3H22.75V18H15.75C14.9544 18 14.1913 18.3161 13.6287 18.8787C13.0661 19.4413 12.75 20.2044 12.75 21" stroke="currentColor" stroke-width="1.2" stroke-linecap="round" stroke-linejoin="round"/>
</svg>
