<svg width="20" height="21" viewBox="0 0 20 21" fill="none" xmlns="http://www.w3.org/2000/svg">
<path d="M6.66675 10.5002H6.67508M10.0001 10.5002H10.0084M13.3334 10.5002H13.3417M6.58341 17.1669C8.1739 17.9827 10.0035 18.2037 11.7425 17.79C13.4815 17.3763 15.0155 16.3551 16.0682 14.9104C17.1209 13.4656 17.6229 11.6925 17.4839 9.91034C17.3449 8.12821 16.5739 6.45434 15.3099 5.19036C14.0459 3.92638 12.3721 3.15541 10.5899 3.01638C8.80782 2.87735 7.03464 3.37941 5.58993 4.43207C4.14522 5.48474 3.12399 7.01879 2.71027 8.7578C2.29654 10.4968 2.51753 12.3264 3.33341 13.9169L1.66675 18.8335L6.58341 17.1669Z" stroke="#6B7280" stroke-linecap="round" stroke-linejoin="round"/>
</svg>
