<svg width="currentWidth" height="currentHeight" viewBox="0 0 16 16" fill="none" xmlns="http://www.w3.org/2000/svg">
<path d="M8.93337 1.33334H4.00004C3.64642 1.33334 3.30728 1.47382 3.05723 1.72387C2.80718 1.97392 2.66671 2.31305 2.66671 2.66668V13.3333C2.66671 13.687 2.80718 14.0261 3.05723 14.2762C3.30728 14.5262 3.64642 14.6667 4.00004 14.6667H12C12.3537 14.6667 12.6928 14.5262 12.9428 14.2762C13.1929 14.0261 13.3334 13.687 13.3334 13.3333V8.40001M1.33337 4.00001H4.00004M1.33337 6.66668H4.00004M1.33337 9.33334H4.00004M1.33337 12H4.00004M12.2667 1.73334C12.5446 1.55396 12.8756 1.47523 13.2045 1.51026C13.5334 1.54529 13.8403 1.69197 14.0742 1.92585C14.3081 2.15973 14.4547 2.46669 14.4898 2.79558C14.5248 3.12448 14.4461 3.45544 14.2667 3.73334L10.6667 7.33334L8.00004 8L8.66671 5.33334L12.2667 1.73334Z" stroke="currentColor" stroke-linecap="round" stroke-linejoin="round"/>
</svg>
