<svg width="24" height="20" viewBox="0 0 24 20" fill="none" xmlns="http://www.w3.org/2000/svg">
<rect width="24" height="20" rx="10" fill="#F3F4F6"/>
<path d="M9.57553 9.15471V9.84688H7.8677V11.7843H7.12683V9.84688H5.41553V9.15471H7.12683V7.3634H7.8677V9.15471H9.57553Z" fill="black"/>
<path d="M11.7079 6.92514C11.5154 6.92514 11.3519 7.03761 11.2175 7.26253C11.1108 7.44108 11.0459 7.63935 11.0227 7.85732C10.9856 8.22833 11.2221 8.43819 11.7322 8.48688C11.9363 8.50775 12.1554 8.49268 12.3896 8.44166C12.378 8.13094 12.3467 7.86195 12.2957 7.63471C12.2772 7.55587 12.254 7.48051 12.2262 7.40862C12.1891 7.32051 12.1496 7.24398 12.1079 7.17906C11.9966 7.00978 11.8633 6.92514 11.7079 6.92514ZM13.1896 12.3478C12.9948 12.1391 12.8151 11.7193 12.6505 11.0886C12.4789 10.4347 12.3919 9.80746 12.3896 9.20688C11.8354 9.30427 11.3589 9.23007 10.9601 8.98427C10.5102 8.71297 10.3224 8.30022 10.3966 7.74601C10.4337 7.46543 10.516 7.20456 10.6435 6.9634C10.785 6.69674 10.9635 6.49152 11.1792 6.34775C11.3972 6.2063 11.6372 6.15065 11.8992 6.1808C12.1589 6.21326 12.3804 6.3234 12.5635 6.51123C12.8093 6.7663 12.9682 7.17326 13.0401 7.7321C13.0656 7.94311 13.0806 8.18659 13.0853 8.46253C13.0876 8.5692 13.0876 8.68862 13.0853 8.8208V8.99123L13.0818 9.15819C13.0795 9.50601 13.1456 9.99065 13.2801 10.6121C13.4169 11.2382 13.5409 11.6173 13.6522 11.7495L13.4366 12.0312C13.2975 12.2098 13.2151 12.3153 13.1896 12.3478Z" fill="black"/>
<path d="M17.1945 6.61558C17.1945 7.17442 17.249 7.69964 17.358 8.19123C17.467 8.68282 17.6084 9.14659 17.7823 9.58253C17.9562 10.0185 18.1522 10.4278 18.3701 10.8104C18.5881 11.193 18.8072 11.5547 19.0275 11.8956L18.398 12.2851C18.238 12.0463 18.0919 11.8144 17.9597 11.5895C17.8275 11.3622 17.7058 11.1408 17.5945 10.9251C17.4832 10.7095 17.3812 10.4985 17.2884 10.2921C17.1957 10.0834 17.111 9.87587 17.0345 9.66949C17.009 9.59761 16.9846 9.53268 16.9615 9.47471C16.9406 9.41442 16.9209 9.35645 16.9023 9.3008C16.8861 9.24514 16.8687 9.18833 16.8501 9.13036C16.8316 9.07007 16.8142 9.00282 16.798 8.92862C16.6936 9.26022 16.5777 9.59181 16.4501 9.9234C16.3226 10.255 16.1928 10.5704 16.0606 10.8695C15.9307 11.1663 15.8032 11.4376 15.678 11.6834C15.5528 11.9269 15.4391 12.1275 15.3371 12.2851L14.7041 11.8956C14.8223 11.6683 14.9464 11.4307 15.0762 11.1825C15.2061 10.9321 15.3336 10.6724 15.4588 10.4034C15.5864 10.1321 15.707 9.85036 15.8206 9.55819C15.9365 9.26369 16.0386 8.95877 16.1267 8.6434C16.2171 8.32572 16.289 7.99877 16.3423 7.66253C16.398 7.32398 16.4293 6.975 16.4362 6.61558H17.1945Z" fill="black"/>
</svg>
