<svg width="currentWidth" height="currentHeight" viewBox="0 0 25 24" fill="none" xmlns="http://www.w3.org/2000/svg">
<path d="M22.3999 10.0002V16.0002M6.3999 12.5002V16.0002C6.3999 16.7959 7.03204 17.559 8.15726 18.1216C9.28248 18.6842 10.8086 19.0002 12.3999 19.0002C13.9912 19.0002 15.5173 18.6842 16.6425 18.1216C17.7678 17.559 18.3999 16.7959 18.3999 16.0002V12.5002M21.8199 10.9224C21.999 10.8434 22.1509 10.7136 22.2569 10.5492C22.3629 10.3847 22.4183 10.1927 22.4163 9.99709C22.4142 9.80144 22.3549 9.61068 22.2455 9.44844C22.1361 9.2862 21.9816 9.15961 21.8009 9.08436L13.2299 5.18036C12.9694 5.06151 12.6863 5 12.3999 5C12.1136 5 11.8305 5.06151 11.5699 5.18036L2.99994 9.08036C2.82191 9.15833 2.67046 9.28649 2.56411 9.44917C2.45776 9.61185 2.40112 9.802 2.40112 9.99636C2.40112 10.1907 2.45776 10.3809 2.56411 10.5435C2.67046 10.7062 2.82191 10.8344 2.99994 10.9124L11.5699 14.8204C11.8305 14.9392 12.1136 15.0007 12.3999 15.0007C12.6863 15.0007 12.9694 14.9392 13.2299 14.8204L21.8199 10.9224Z" stroke="currentColor" stroke-linecap="round" stroke-linejoin="round"/>
</svg>
