<svg width="18" height="18" viewBox="0 0 18 18" fill="none" xmlns="http://www.w3.org/2000/svg">
<path fill-rule="evenodd" clip-rule="evenodd" d="M3.86361 3.86369C4.03238 3.69496 4.26126 3.60018 4.49991 3.60018C4.73855 3.60018 4.96743 3.69496 5.13621 3.86369L8.99991 7.72739L12.8636 3.86369C12.9466 3.77773 13.0459 3.70916 13.1557 3.662C13.2655 3.61483 13.3836 3.59 13.5031 3.58896C13.6226 3.58792 13.7412 3.6107 13.8518 3.65595C13.9624 3.7012 14.0629 3.76803 14.1474 3.85253C14.2319 3.93704 14.2987 4.03752 14.3439 4.14813C14.3892 4.25874 14.412 4.37725 14.4109 4.49675C14.4099 4.61625 14.3851 4.73435 14.3379 4.84415C14.2907 4.95396 14.2222 5.05327 14.1362 5.13629L10.2725 8.99999L14.1362 12.8637C14.3001 13.0334 14.3909 13.2608 14.3888 13.4967C14.3868 13.7327 14.2921 13.9585 14.1252 14.1253C13.9584 14.2922 13.7326 14.3868 13.4967 14.3889C13.2607 14.3909 13.0333 14.3002 12.8636 14.1363L8.99991 10.2726L5.13621 14.1363C4.96646 14.3002 4.73912 14.3909 4.50314 14.3889C4.26717 14.3868 4.04144 14.2922 3.87457 14.1253C3.7077 13.9585 3.61305 13.7327 3.611 13.4967C3.60895 13.2608 3.69966 13.0334 3.86361 12.8637L7.72731 8.99999L3.86361 5.13629C3.69488 4.96751 3.6001 4.73864 3.6001 4.49999C3.6001 4.26134 3.69488 4.03246 3.86361 3.86369Z" fill="#6B7280"/>
</svg>
