<svg width="324" height="204" viewBox="0 0 324 204" fill="none" xmlns="http://www.w3.org/2000/svg">
<g clip-path="url(#clip0_4_19623)">
<g clip-path="url(#clip1_4_19623)">
<path d="M241.473 72.1089C241.473 72.1089 233.864 12.5671 188.969 55.375C131.417 110.248 92.7319 1.18626 50.0384 45.7043C26.714 70.0243 88.3483 124.415 47.1853 153.04C6.02234 181.664 39.6599 203.093 39.6599 203.093H273.394C273.394 203.093 297.591 204.84 299.422 174.223C301.251 143.605 273.124 143.234 290.58 104.919C308.037 66.604 246.959 96.4964 241.473 72.1089Z" fill="#F5FBFF"/>
<g opacity="0.5">
<path opacity="0.5" d="M160.745 104.354C167.898 104.354 173.696 98.5556 173.696 91.4026C173.696 84.2496 167.898 78.4509 160.745 78.4509C153.592 78.4509 147.793 84.2496 147.793 91.4026C147.793 98.5556 153.592 104.354 160.745 104.354Z" fill="white" stroke="#4D6173" stroke-width="0.682746" stroke-miterlimit="10"/>
<g opacity="0.5">
<path d="M160.745 86.8784C160.845 87.6317 160.911 88.3873 160.959 89.1406C160.989 89.5184 161 89.8939 161.02 90.2717C161.041 90.6495 161.045 91.025 161.059 91.4027L160.964 91.1774C161.464 91.6394 161.954 92.1151 162.441 92.5884C162.923 93.0686 163.408 93.5488 163.877 94.0427C164.116 94.2862 164.348 94.5343 164.578 94.7869C164.81 95.0372 165.04 95.2876 165.265 95.5447C165.72 96.0545 166.164 96.5734 166.585 97.1173C166.034 96.7077 165.504 96.2753 164.985 95.8315C164.723 95.613 164.466 95.3877 164.211 95.1601C163.954 94.9348 163.701 94.7072 163.451 94.4751C162.946 94.0177 162.456 93.5443 161.965 93.0732C161.48 92.5953 160.993 92.1174 160.522 91.6258L160.422 91.5234L160.426 91.4005C160.44 91.0227 160.445 90.6472 160.465 90.2694C160.486 89.8916 160.497 89.5161 160.527 89.1383C160.579 88.385 160.645 87.6317 160.745 86.8784Z" fill="#4D6173"/>
</g>
</g>
<g opacity="0.2">
<rect x="226.098" y="90.5933" width="29.1413" height="54.2353" fill="white" stroke="#A4B6C6" stroke-width="1.61896"/>
<rect x="226.098" y="137.543" width="29.1413" height="7.28533" stroke="#A4B6C6" stroke-width="1.61896"/>
<rect x="226.098" y="130.258" width="29.1413" height="7.28533" stroke="#A4B6C6" stroke-width="1.61896"/>
<rect x="226.098" y="122.972" width="29.1413" height="7.28533" stroke="#A4B6C6" stroke-width="1.61896"/>
<rect x="226.098" y="115.687" width="29.1413" height="7.28533" stroke="#A4B6C6" stroke-width="1.61896"/>
<rect x="226.098" y="108.402" width="29.1413" height="7.28533" stroke="#A4B6C6" stroke-width="1.61896"/>
<rect x="226.098" y="101.116" width="29.1413" height="7.28533" stroke="#A4B6C6" stroke-width="1.61896"/>
<rect x="226.098" y="95.4502" width="29.1413" height="5.66637" stroke="#A4B6C6" stroke-width="1.61896"/>
<rect x="196.956" y="90.5933" width="29.1413" height="54.2353" stroke="#A4B6C6" stroke-width="1.61896"/>
<rect x="200.194" y="95.4502" width="22.6655" height="44.5215" fill="white" stroke="#A4B6C6" stroke-width="1.61896"/>
</g>
<g opacity="0.2">
<path d="M84.5167 103.94L83.8301 106.661H94.9807L94.294 103.94M84.5167 103.94L87.6448 91.5418V86.7037H89.4054M84.5167 103.94H94.294M94.294 103.94L91.166 91.5418V86.7037H89.4054M89.4054 86.7037C89.1119 84.2846 89.5228 78.5998 93.5135 75.2131" stroke="#A4B6C6" stroke-width="1.61896"/>
<rect x="100.85" y="94.2634" width="14.6719" height="12.7001" rx="3.23793" fill="white" stroke="#A4B6C6" stroke-width="1.61896"/>
<path d="M100.85 97.8921H115.521" stroke="#A4B6C6" stroke-width="1.61896"/>
<path d="M108.186 94.2635C106.425 94.0619 102.023 92.7516 102.023 89.123C104.958 89.4254 106.132 90.0301 108.186 94.2635ZM108.186 94.2635C106.914 92.046 105.193 86.7644 108.479 83.3777C111.531 86.7644 109.555 92.046 108.186 94.2635ZM108.186 94.2635C108.186 94.5659 110.533 89.123 115.228 88.8206C115.228 91.4816 110.533 93.5579 108.186 94.2635Z" stroke="#A4B6C6" stroke-width="1.61896"/>
<rect x="77.9609" y="106.964" width="46.9499" height="5.4429" stroke="#A4B6C6" stroke-width="1.61896"/>
</g>
<path d="M39.3633 202.729H262.085" stroke="#A4B6C6" stroke-width="1.61896" stroke-miterlimit="10"/>
<path d="M269.885 202.729H297.41" stroke="#A4B6C6" stroke-width="1.61896" stroke-miterlimit="10"/>
</g>
<path d="M132.59 149.674L123.985 192.855C123.401 195.788 125.344 198.698 128.277 199.283L129.591 199.545L171.458 207.888C174.39 208.472 177.301 206.529 177.886 203.596L188.365 151.01L188.647 149.594C189.231 146.662 187.288 143.751 184.355 143.167L151.995 136.718" fill="#1B91FB"/>
<path d="M132.59 149.674L123.985 192.855C123.401 195.788 125.344 198.698 128.277 199.283L129.591 199.545L171.458 207.888C174.39 208.472 177.301 206.529 177.886 203.596L188.365 151.01L188.647 149.594C189.231 146.662 187.288 143.751 184.355 143.167L151.995 136.718" stroke="#4D6173" stroke-width="1.61896" stroke-miterlimit="10" stroke-linecap="round" stroke-linejoin="round"/>
<path d="M151.995 136.718L148.771 152.898L132.591 149.674L151.995 136.718Z" fill="#4D6173" stroke="#4D6173" stroke-width="1.61896" stroke-miterlimit="10" stroke-linecap="round" stroke-linejoin="round"/>
<path d="M169.027 147.076L179.67 189.801C180.393 192.702 178.59 195.702 175.688 196.425L174.387 196.749L132.964 207.068C130.062 207.791 127.062 205.988 126.339 203.086L113.378 151.057L113.029 149.656C112.306 146.754 114.109 143.755 117.011 143.032L149.029 135.055" fill="#85CBFF"/>
<path d="M169.027 147.076L179.67 189.801C180.393 192.702 178.59 195.702 175.688 196.425L174.387 196.749L132.964 207.068C130.062 207.791 127.062 205.988 126.339 203.086L113.378 151.057L113.029 149.656C112.306 146.754 114.109 143.755 117.011 143.032L149.029 135.055" stroke="#4D6173" stroke-width="1.61896" stroke-miterlimit="10" stroke-linecap="round" stroke-linejoin="round"/>
<path d="M149.029 135.055L153.017 151.065L169.027 147.076L149.029 135.055Z" fill="#4D6173" stroke="#4D6173" stroke-width="1.61896" stroke-miterlimit="10" stroke-linecap="round" stroke-linejoin="round"/>
<path d="M179.495 153.23V197.26C179.495 200.25 177.021 202.725 174.03 202.725H172.69H130C127.01 202.725 124.535 200.25 124.535 197.26V143.64V142.197C124.535 139.206 127.01 136.731 130 136.731H162.997" fill="white"/>
<path d="M179.495 153.23V197.26C179.495 200.25 177.021 202.725 174.03 202.725H172.69H130C127.01 202.725 124.535 200.25 124.535 197.26V143.64V142.197C124.535 139.206 127.01 136.731 130 136.731H162.997" stroke="#4D6173" stroke-width="1.61896" stroke-miterlimit="10" stroke-linecap="round" stroke-linejoin="round"/>
<path d="M162.997 136.731V153.23H179.495L162.997 136.731Z" fill="#4D6173" stroke="#4D6173" stroke-width="1.61896" stroke-miterlimit="10" stroke-linecap="round" stroke-linejoin="round"/>
<path d="M185.84 196.141L171.186 187.1L173.26 183.74L187.908 192.792L185.84 196.141Z" fill="#FFB52E" stroke="#4D6173" stroke-width="0.930904" stroke-miterlimit="10"/>
<path d="M193.15 200.695L181.911 193.755C180.973 193.176 180.68 191.939 181.26 191C181.839 190.062 183.076 189.769 184.014 190.349L195.253 197.289C196.192 197.868 196.484 199.105 195.905 200.043C195.325 200.982 194.089 201.275 193.15 200.695Z" fill="#4D6173" stroke="#4D6173" stroke-width="0.930904" stroke-miterlimit="10"/>
<path d="M192.641 201.429L178.181 192.5C177.845 192.292 177.741 191.852 177.946 191.507L180.228 187.811C180.436 187.474 180.876 187.37 181.222 187.576L195.682 196.504C196.018 196.712 196.122 197.152 195.917 197.498L193.634 201.194C193.418 201.532 192.977 201.636 192.641 201.429Z" fill="#FFB52E" stroke="#4D6173" stroke-width="0.930904" stroke-miterlimit="10"/>
<path d="M148.74 152.107C136.334 155.041 128.657 167.474 131.591 179.88C134.523 192.277 146.958 199.963 159.355 197.032C171.761 194.098 179.438 181.665 176.504 169.259C173.57 156.852 161.137 149.175 148.74 152.107ZM158.38 192.869C148.419 195.225 138.412 188.933 136.021 178.823C133.63 168.712 139.761 158.614 149.722 156.258C159.683 153.903 169.69 160.194 172.081 170.305C174.472 180.415 168.332 190.515 158.38 192.869Z" fill="#FFB52E" stroke="#4D6173" stroke-width="0.930904" stroke-miterlimit="10"/>
<ellipse cx="154.014" cy="174.426" rx="18.0856" ry="18.2322" transform="rotate(-13.3056 154.014 174.426)" fill="white"/>
<path d="M161.224 175.026C162.595 175.021 163.767 173.841 163.762 172.47C163.757 171.098 162.577 169.927 161.205 169.932C159.834 169.937 158.663 171.117 158.668 172.488C158.673 173.958 159.754 175.032 161.224 175.026Z" fill="#1B91FB"/>
<path d="M159.735 181.838L158.462 181.842C157.376 179.495 154.531 178.624 152.283 179.808C151.402 180.203 150.621 180.989 150.233 181.872L148.959 181.877C150.026 178.836 153.547 177.256 156.49 178.421C157.864 179.004 159.141 180.174 159.735 181.838Z" fill="#1B91FB"/>
<path d="M146.654 175.098C148.025 175.093 149.196 173.913 149.191 172.541C149.186 171.17 148.006 169.999 146.635 170.004C145.263 170.009 144.092 171.189 144.097 172.56C144.201 174.029 145.282 175.103 146.654 175.098Z" fill="#1B91FB"/>
</g>
<defs>
<clipPath id="clip0_4_19623">
<rect width="323.793" height="202.37" fill="white" transform="translate(0 0.740723)"/>
</clipPath>
<clipPath id="clip1_4_19623">
<rect width="273.046" height="168.457" fill="white" transform="translate(26.7129 34.739)"/>
</clipPath>
</defs>
</svg>
