<svg width="117" height="31" viewBox="0 0 117 31" fill="none" xmlns="http://www.w3.org/2000/svg">
<path d="M0.830078 19.7871C0.901693 19.5397 1.04492 19.3607 1.25977 19.25C1.47461 19.1393 1.71224 19.11 1.97266 19.1621C2.57812 19.3444 3.1901 19.4355 3.80859 19.4355C4.73958 19.4355 5.42318 19.2826 5.85938 18.9766C6.30208 18.6706 6.52344 18.2116 6.52344 17.5996C6.52344 17.3717 6.47786 17.1406 6.38672 16.9062C6.38021 16.8867 6.3737 16.8672 6.36719 16.8477C6.35417 16.8021 6.33789 16.7533 6.31836 16.7012C6.12305 16.1283 5.90169 15.5879 5.6543 15.0801C5.4069 14.5723 5.10091 13.9928 4.73633 13.3418C4.61263 13.127 4.58008 12.8958 4.63867 12.6484C4.69727 12.3945 4.83724 12.2025 5.05859 12.0723C5.27344 11.9421 5.50456 11.9095 5.75195 11.9746C6.00586 12.0332 6.19792 12.1732 6.32812 12.3945C6.69271 13.0391 7.01172 13.6348 7.28516 14.1816C7.55859 14.7285 7.81901 15.3665 8.06641 16.0957C8.28776 16.7142 8.51237 17.2513 8.74023 17.707C8.97461 18.1628 9.26107 18.5143 9.59961 18.7617C9.94466 19.0091 10.3906 19.1361 10.9375 19.1426H10.9473C11.2012 19.1426 11.416 19.2337 11.5918 19.416C11.7741 19.5918 11.8652 19.8066 11.8652 20.0605C11.8652 20.3145 11.7741 20.5293 11.5918 20.7051C11.416 20.8874 11.2012 20.9785 10.9473 20.9785H10.9375C10.2148 20.9785 9.59961 20.8451 9.0918 20.5781C8.58398 20.3177 8.1543 19.9889 7.80273 19.5918C7.37956 20.2038 6.79362 20.6367 6.04492 20.8906C5.30273 21.1445 4.55729 21.2715 3.80859 21.2715C3.37891 21.2715 2.98503 21.2454 2.62695 21.1934C2.27539 21.1413 1.88477 21.0501 1.45508 20.9199C1.21419 20.8548 1.0319 20.7116 0.908203 20.4902C0.791016 20.2624 0.764974 20.028 0.830078 19.7871ZM10.0293 20.0605C10.0293 19.8066 10.1204 19.5918 10.3027 19.416C10.485 19.2337 10.7031 19.1426 10.957 19.1426C11.8815 19.1426 12.5684 19.0352 13.0176 18.8203C13.4668 18.599 13.7663 18.2311 13.916 17.7168C14.0658 17.196 14.1471 16.4896 14.1602 15.5977C14.1732 15.3177 14.2741 15.0996 14.4629 14.9434C14.6582 14.7806 14.8861 14.709 15.1465 14.7285C15.4004 14.7415 15.6087 14.8457 15.7715 15.041C15.9408 15.2298 16.0189 15.4479 16.0059 15.6953C15.9863 16.5417 16.0449 17.2188 16.1816 17.7266C16.3249 18.2279 16.6048 18.5892 17.0215 18.8105C17.4447 19.0319 18.0599 19.1426 18.8672 19.1426H18.877C19.1309 19.1426 19.3457 19.2337 19.5215 19.416C19.7038 19.5918 19.7949 19.8066 19.7949 20.0605C19.7949 20.3145 19.7038 20.5293 19.5215 20.7051C19.3457 20.8874 19.1309 20.9785 18.877 20.9785H18.8672C17.8516 20.9785 17.0345 20.819 16.416 20.5C15.804 20.1745 15.3548 19.6211 15.0684 18.8398C14.6908 19.6406 14.1764 20.1973 13.5254 20.5098C12.8809 20.8223 12.0247 20.9785 10.957 20.9785C10.7031 20.9785 10.485 20.8874 10.3027 20.7051C10.1204 20.5293 10.0293 20.3145 10.0293 20.0605ZM9.07227 25.1973C9.01367 25.0085 9.0332 24.8229 9.13086 24.6406C9.22852 24.4583 9.37826 24.3346 9.58008 24.2695C9.93164 24.1589 10.3483 24.071 10.8301 24.0059C11.3053 23.9473 11.7773 23.918 12.2461 23.918C13.1445 23.918 13.8607 24.0254 14.3945 24.2402C14.5898 24.3444 14.7168 24.5039 14.7754 24.7188C14.834 24.9401 14.8014 25.1419 14.6777 25.3242C14.4694 25.6367 14.1895 25.7441 13.8379 25.6465C13.4082 25.5228 12.8776 25.4609 12.2461 25.4609C11.8034 25.4609 11.3835 25.4805 10.9863 25.5195C10.5892 25.5651 10.2604 25.6302 10 25.7148C9.80469 25.7669 9.61589 25.7409 9.43359 25.6367C9.2513 25.5326 9.13086 25.3861 9.07227 25.1973ZM17.9688 20.0605C17.9688 19.8066 18.0599 19.5918 18.2422 19.416C18.418 19.2337 18.6328 19.1426 18.8867 19.1426C19.8633 19.1426 20.752 19.0645 21.5527 18.9082C21.0319 18.4785 20.6185 17.9935 20.3125 17.4531C20.013 16.9062 19.8633 16.3203 19.8633 15.6953C19.8633 14.9727 20.0228 14.3184 20.3418 13.7324C20.6608 13.14 21.097 12.668 21.6504 12.3164C22.2103 11.9648 22.8418 11.7891 23.5449 11.7891C24.2546 11.7891 24.8796 11.9648 25.4199 12.3164C25.9603 12.668 26.3835 13.1432 26.6895 13.7422C26.9954 14.3346 27.1484 14.9922 27.1484 15.7148C27.1484 16.3398 26.9922 16.9225 26.6797 17.4629C26.3737 18.0033 25.957 18.485 25.4297 18.9082C26.2305 19.0645 27.1191 19.1426 28.0957 19.1426H28.1055C28.3594 19.1426 28.5742 19.2337 28.75 19.416C28.9323 19.5918 29.0234 19.8066 29.0234 20.0605C29.0234 20.3145 28.9323 20.5293 28.75 20.7051C28.5742 20.8874 28.3594 20.9785 28.1055 20.9785H28.0957C26.4421 20.9785 24.9056 20.6725 23.4863 20.0605C22.0605 20.6725 20.5273 20.9785 18.8867 20.9785C18.6328 20.9785 18.418 20.8874 18.2422 20.7051C18.0599 20.5293 17.9688 20.3145 17.9688 20.0605ZM21.6992 15.6953C21.6992 16.2747 21.8555 16.7793 22.168 17.209C22.487 17.6387 22.9264 17.9967 23.4863 18.2832C24.0527 17.9967 24.4954 17.6419 24.8145 17.2188C25.14 16.7891 25.3027 16.2878 25.3027 15.7148C25.3027 15.1224 25.1465 14.6309 24.834 14.2402C24.5215 13.8431 24.0918 13.6445 23.5449 13.6445C22.9915 13.6445 22.5456 13.8431 22.207 14.2402C21.8685 14.6309 21.6992 15.1159 21.6992 15.6953ZM22.6465 7.74609C22.6465 7.48568 22.7409 7.25456 22.9297 7.05273C23.125 6.8444 23.3757 6.74023 23.6816 6.74023C23.8965 6.74023 24.0788 6.78581 24.2285 6.87695C24.3783 6.96159 24.4954 7.07227 24.5801 7.20898C24.6908 7.37174 24.7461 7.55404 24.7461 7.75586C24.7461 7.9707 24.6745 8.20508 24.5312 8.45898C24.388 8.70638 24.1048 8.83008 23.6816 8.83008C23.4017 8.83008 23.1868 8.76823 23.0371 8.64453C22.8874 8.52083 22.7832 8.3776 22.7246 8.21484C22.6725 8.07812 22.6465 7.92188 22.6465 7.74609ZM27.1875 20.0605C27.1875 19.8066 27.2786 19.5918 27.4609 19.416C27.6367 19.2337 27.8516 19.1426 28.1055 19.1426C28.9128 19.1426 29.5443 18.9017 30 18.4199C30.4622 17.9316 30.765 17.2773 30.9082 16.457C30.9212 16.3073 30.944 16.1283 30.9766 15.9199V15.8906C30.9831 15.8385 30.9928 15.7865 31.0059 15.7344C31.0514 15.5456 31.1491 15.3893 31.2988 15.2656C31.4486 15.1419 31.6146 15.0703 31.7969 15.0508C31.8555 15.0443 31.9141 15.0443 31.9727 15.0508C32.0703 15.0573 32.1615 15.0801 32.2461 15.1191C32.4349 15.1973 32.5814 15.3275 32.6855 15.5098C32.7962 15.6921 32.8385 15.8906 32.8125 16.1055L32.8027 16.1836C32.7832 16.3333 32.7604 16.4831 32.7344 16.6328C32.7083 16.8281 32.6921 16.9909 32.6855 17.1211C32.679 17.2448 32.6758 17.3717 32.6758 17.502C32.6758 18.0488 32.806 18.4915 33.0664 18.8301C33.3268 19.1686 33.6947 19.3379 34.1699 19.3379C34.7559 19.3379 35.2148 19.0938 35.5469 18.6055C35.8789 18.1107 36.1068 17.4271 36.2305 16.5547C36.2435 16.3919 36.263 16.2031 36.2891 15.9883C36.3216 15.7474 36.4355 15.5553 36.6309 15.4121C36.8327 15.2689 37.0508 15.2135 37.2852 15.2461C37.5846 15.2917 37.8027 15.4447 37.9395 15.7051C38.0241 15.8613 38.0566 16.0273 38.0371 16.2031C38.0176 16.3854 37.9948 16.5677 37.9688 16.75C37.9557 16.8932 37.9492 17.0267 37.9492 17.1504C37.9492 17.7949 38.0892 18.319 38.3691 18.7227C38.6556 19.1198 39.0951 19.3184 39.6875 19.3184C40.2669 19.3184 40.6868 19.1393 40.9473 18.7812C41.2077 18.4232 41.3379 17.9251 41.3379 17.2871C41.3379 16.7142 41.2565 16.099 41.0938 15.4414C41.0352 15.194 41.0742 14.9629 41.2109 14.748C41.3477 14.5332 41.5365 14.3965 41.7773 14.3379C42.0247 14.2793 42.2559 14.3184 42.4707 14.4551C42.6921 14.5853 42.832 14.7773 42.8906 15.0312C43.0013 15.5065 43.0762 15.8971 43.1152 16.2031C43.1543 16.5091 43.1738 16.8346 43.1738 17.1797C43.1738 18.3776 42.8809 19.3411 42.2949 20.0703C41.709 20.793 40.8789 21.1543 39.8047 21.1543C39.1536 21.1543 38.5775 21.0143 38.0762 20.7344C37.5814 20.4544 37.181 20.0671 36.875 19.5723C36.5234 20.0605 36.1068 20.4479 35.625 20.7344C35.1497 21.0273 34.6191 21.1738 34.0332 21.1738C33.4342 21.1738 32.9036 21.0208 32.4414 20.7148C31.9792 20.4154 31.6113 20.015 31.3379 19.5137C30.9342 19.9629 30.459 20.3177 29.9121 20.5781C29.3652 20.8451 28.763 20.9785 28.1055 20.9785C27.8516 20.9785 27.6367 20.8874 27.4609 20.7051C27.2786 20.5293 27.1875 20.3145 27.1875 20.0605ZM48.3496 16.8672C48.3496 16.0013 48.6458 15.2526 49.2383 14.6211C49.8372 13.9831 50.5892 13.4395 51.4941 12.9902C51.8978 12.7819 52.2754 12.5638 52.627 12.3359C52.985 12.1081 53.2096 11.877 53.3008 11.6426L53.291 11.5156C53.265 11.2682 53.3333 11.0469 53.4961 10.8516C53.6654 10.6497 53.8737 10.5358 54.1211 10.5098C54.3685 10.4837 54.5898 10.5553 54.7852 10.7246C54.987 10.8874 55.1009 11.0957 55.127 11.3496L55.6152 16.7402C55.6803 17.4499 55.7975 17.9772 55.9668 18.3223C56.1361 18.6608 56.377 18.8822 56.6895 18.9863C57.0085 19.0905 57.4121 19.1426 57.9004 19.1426H57.9102C58.1641 19.1426 58.3789 19.2337 58.5547 19.416C58.737 19.5918 58.8281 19.8066 58.8281 20.0605C58.8281 20.3145 58.737 20.5293 58.5547 20.7051C58.3789 20.8874 58.1641 20.9785 57.9102 20.9785H57.9004C56.9694 20.9785 56.2174 20.832 55.6445 20.5391C55.0716 20.2526 54.6354 19.8066 54.3359 19.2012C54.1927 19.4941 53.9616 19.6634 53.6426 19.709C53.2585 19.7611 52.9036 19.7871 52.5781 19.7871C51.2305 19.7871 50.1888 19.5299 49.4531 19.0156C48.7174 18.4948 48.3496 17.7786 48.3496 16.8672ZM53.3887 17.8828C53.5775 17.8568 53.7598 17.8893 53.9355 17.9805C53.8639 17.6549 53.8118 17.2969 53.7793 16.9062L53.5156 13.957C53.3268 14.0807 53.1283 14.2012 52.9199 14.3184C52.7116 14.4355 52.4967 14.5527 52.2754 14.6699C51.7155 14.9694 51.2305 15.2852 50.8203 15.6172C50.4102 15.9492 50.2051 16.3333 50.2051 16.7695C50.2051 17.5573 50.9961 17.9512 52.5781 17.9512C52.6888 17.9512 52.8158 17.9447 52.959 17.9316C53.1022 17.9186 53.2454 17.9023 53.3887 17.8828ZM56.9824 20.0605C56.9824 19.8066 57.0736 19.5918 57.2559 19.416C57.4382 19.2337 57.6562 19.1426 57.9102 19.1426C58.8346 19.1426 59.5215 19.0352 59.9707 18.8203C60.4199 18.599 60.7194 18.2311 60.8691 17.7168C61.0189 17.196 61.1003 16.4896 61.1133 15.5977C61.1263 15.3177 61.2272 15.0996 61.416 14.9434C61.6113 14.7806 61.8392 14.709 62.0996 14.7285C62.3535 14.7415 62.5618 14.8457 62.7246 15.041C62.8939 15.2298 62.972 15.4479 62.959 15.6953C62.9395 16.5417 62.998 17.2188 63.1348 17.7266C63.278 18.2279 63.5579 18.5892 63.9746 18.8105C64.3978 19.0319 65.013 19.1426 65.8203 19.1426H65.8301C66.084 19.1426 66.2988 19.2337 66.4746 19.416C66.6569 19.5918 66.748 19.8066 66.748 20.0605C66.748 20.3145 66.6569 20.5293 66.4746 20.7051C66.2988 20.8874 66.084 20.9785 65.8301 20.9785H65.8203C64.8047 20.9785 63.9876 20.819 63.3691 20.5C62.7572 20.1745 62.3079 19.6211 62.0215 18.8398C61.6439 19.6406 61.1296 20.1973 60.4785 20.5098C59.834 20.8223 58.9779 20.9785 57.9102 20.9785C57.6562 20.9785 57.4382 20.8874 57.2559 20.7051C57.0736 20.5293 56.9824 20.3145 56.9824 20.0605ZM57.9297 11.5156C57.8711 11.3268 57.8906 11.1413 57.9883 10.959C58.0859 10.7767 58.2357 10.653 58.4375 10.5879C58.7891 10.4772 59.2025 10.3926 59.6777 10.334C60.1595 10.2689 60.6348 10.2363 61.1035 10.2363C62.002 10.2363 62.7181 10.3438 63.252 10.5586C63.4473 10.6628 63.5742 10.8255 63.6328 11.0469C63.6914 11.2617 63.6589 11.4603 63.5352 11.6426C63.3268 11.9551 63.0469 12.0625 62.6953 11.9648C62.2656 11.8411 61.735 11.7793 61.1035 11.7793C60.6608 11.7793 60.2409 11.8021 59.8438 11.8477C59.4466 11.8867 59.1178 11.9486 58.8574 12.0332C58.6621 12.0853 58.4733 12.0592 58.291 11.9551C58.1087 11.8509 57.9883 11.7044 57.9297 11.5156ZM69.5312 12.5215C70.0781 12.5215 70.6673 12.6549 71.2988 12.9219C71.9368 13.1823 72.6172 13.5013 73.3398 13.8789C74.2383 14.3411 75.4167 14.8783 76.875 15.4902C77.0378 15.5553 77.1712 15.6693 77.2754 15.832C77.3796 15.9948 77.4316 16.1641 77.4316 16.3398C77.4316 16.6719 77.2884 16.9323 77.002 17.1211C76.6699 17.3424 76.3444 17.5508 76.0254 17.7461C76.2598 18.6771 77.1615 19.1426 78.7305 19.1426H78.7402C78.9941 19.1426 79.209 19.2337 79.3848 19.416C79.5671 19.5918 79.6582 19.8066 79.6582 20.0605C79.6582 20.3145 79.5671 20.5293 79.3848 20.7051C79.209 20.8874 78.9941 20.9785 78.7402 20.9785H78.7305C77.7344 20.9785 76.8457 20.793 76.0645 20.4219C75.2832 20.0443 74.7298 19.4616 74.4043 18.6738C73.0306 19.4095 71.6374 19.9792 70.2246 20.3828C68.8184 20.7799 67.3568 20.9785 65.8398 20.9785C65.5859 20.9785 65.3678 20.8841 65.1855 20.6953C65.0033 20.513 64.9121 20.3014 64.9121 20.0605C64.9121 19.8132 65.0033 19.5983 65.1855 19.416C65.3678 19.2337 65.5859 19.1426 65.8398 19.1426C67.2982 19.1426 68.724 18.9277 70.1172 18.498C71.5104 18.0618 72.9102 17.4141 74.3164 16.5547C74.349 16.5091 74.388 16.4668 74.4336 16.4277C74.0039 16.2324 73.6003 16.0469 73.2227 15.8711C72.8516 15.6953 72.4967 15.5195 72.1582 15.3438C71.6048 15.0443 71.1263 14.8132 70.7227 14.6504C70.3255 14.4811 69.9837 14.3965 69.6973 14.3965C69.3848 14.3965 69.1146 14.5267 68.8867 14.7871C68.6589 15.041 68.4115 15.4674 68.1445 16.0664C68.0664 16.2617 67.8906 16.4147 67.6172 16.5254C67.3503 16.6361 67.0833 16.61 66.8164 16.4473C66.6471 16.3366 66.5234 16.1706 66.4453 15.9492C66.3672 15.7279 66.3802 15.5033 66.4844 15.2754C66.875 14.4421 67.3014 13.7747 67.7637 13.2734C68.2324 12.7721 68.8216 12.5215 69.5312 12.5215ZM68.3594 8.68359C68.3594 8.42318 68.4538 8.19206 68.6426 7.99023C68.8379 7.7819 69.0885 7.67773 69.3945 7.67773C69.6094 7.67773 69.7917 7.72331 69.9414 7.81445C70.0911 7.89909 70.2083 8.00977 70.293 8.14648C70.4036 8.30924 70.459 8.49154 70.459 8.69336C70.459 8.9082 70.3874 9.14258 70.2441 9.39648C70.1009 9.64388 69.8177 9.76758 69.3945 9.76758C69.1146 9.76758 68.8997 9.70573 68.75 9.58203C68.6003 9.45833 68.4961 9.3151 68.4375 9.15234C68.3854 9.01562 68.3594 8.85938 68.3594 8.68359ZM77.832 20.0605C77.832 19.8066 77.9232 19.5918 78.1055 19.416C78.2812 19.2337 78.4961 19.1426 78.75 19.1426C79.668 19.1426 80.332 18.9993 80.7422 18.7129C81.1523 18.4199 81.3574 17.873 81.3574 17.0723C81.3574 16.7988 81.3346 16.4375 81.2891 15.9883C81.25 15.5391 81.1849 15.1029 81.0938 14.6797C81.0612 14.4323 81.1198 14.2077 81.2695 14.0059C81.4258 13.7975 81.6276 13.6738 81.875 13.6348C82.1224 13.6022 82.347 13.6641 82.5488 13.8203C82.7507 13.9701 82.8743 14.1686 82.9199 14.416C83.0306 14.8978 83.1087 15.3796 83.1543 15.8613C83.1999 16.3366 83.2227 16.7435 83.2227 17.082C83.2227 18.3776 82.8418 19.3509 82.0801 20.002C81.3249 20.653 80.2148 20.9785 78.75 20.9785C78.4961 20.9785 78.2812 20.8874 78.1055 20.7051C77.9232 20.5293 77.832 20.3145 77.832 20.0605ZM78.125 10.9492C78.0664 10.7604 78.0859 10.5749 78.1836 10.3926C78.2812 10.2103 78.431 10.0866 78.6328 10.0215C78.9844 9.91081 79.3978 9.82617 79.873 9.76758C80.3548 9.70247 80.8301 9.66992 81.2988 9.66992C82.1973 9.66992 82.9134 9.77734 83.4473 9.99219C83.6426 10.0964 83.7695 10.2591 83.8281 10.4805C83.8867 10.6953 83.8542 10.8939 83.7305 11.0762C83.5221 11.3887 83.2422 11.4961 82.8906 11.3984C82.4609 11.2747 81.9303 11.2129 81.2988 11.2129C80.8561 11.2129 80.4362 11.2357 80.0391 11.2812C79.6419 11.3203 79.3132 11.3822 79.0527 11.4668C78.8574 11.5189 78.6686 11.4928 78.4863 11.3887C78.304 11.2845 78.1836 11.138 78.125 10.9492Z" fill="#1F2A37"/>
<path d="M95 6.5H115M114 6.5V17.5C114 18.0304 113.789 18.5391 113.414 18.9142C113.039 19.2893 112.53 19.5 112 19.5H98C97.4696 19.5 96.9609 19.2893 96.5858 18.9142C96.2107 18.5391 96 18.0304 96 17.5V6.5M100 24.5L105 19.5L110 24.5" stroke="#00A592" stroke-width="2.2" stroke-linecap="round" stroke-linejoin="round"/>
</svg>
